<svg version="1.2" xmlns="http://www.w3.org/2000/svg" viewBox="0 0 329 80" width="329" height="80"><style>.a{fill:#fff}</style><path class="a" d="m262 0h68.5v12.7h-27.2v66.6h-13.6v-66.6h-27.7zm-113 0v12.7h-55v20.4h44.3v12.6h-44.3v21h55v12.6h-68.5v-79.3h68.7zm34.3 0h-17.8l63.8 79.4h17.9l-32-39.7 32-39.6h-17.9l-23 28.6-23-28.6zm18.3 56.7l-9-11-27.1 33.7h17.8z"/><path class="a" d="m81 79.3l-64-79.3h-17v79.3h13.6v-62.3l50.2 62.3zm252.6-0.4c-1 0-1.8-0.4-2.5-1-0.7-0.6-1.1-1.6-1.1-2.6 0-1 0.3-1.8 1-2.5 0.7-0.7 1.6-1 2.6-1 1 0 1.8 0.3 2.5 1q0.4 0.4 0.7 0.9 0.3 0.6 0.4 1.1 0.1 0.6-0.1 1.2-0.1 0.6-0.4 1.1-0.2 0.4-0.6 0.7-0.3 0.3-0.7 0.6-0.4 0.2-0.8 0.3-0.4 0.2-0.9 0.2zm23.2-33.5h6v23.3c0 2.1-0.4 4-1.3 5.5q-0.3 0.6-0.8 1.1-0.4 0.5-0.8 0.9-0.5 0.5-1.1 0.8-0.5 0.4-1.1 0.7c-1.6 0.8-3.5 1.3-5.7 1.3-2 0-3.7-0.4-5.3-1-1.6-0.6-2.8-1.8-3.7-3.2-0.9-1.3-1.4-3-1.4-5h6c0.1 0.8 0.3 1.6 0.7 2.2 0.4 0.6 1 1.2 1.6 1.5 0.7 0.4 1.5 0.5 2.4 0.5q1.5 0 2.4-0.6 0.3-0.2 0.5-0.4 0.2-0.1 0.4-0.4 0.2-0.2 0.4-0.5 0.2-0.2 0.3-0.5c0.3-0.8 0.5-1.8 0.5-3v-23.1zm30.9 9.1q0-0.5-0.2-1-0.2-0.5-0.4-0.9-0.3-0.4-0.6-0.8-0.4-0.3-0.8-0.6-0.5-0.3-1-0.5-0.5-0.2-1.1-0.4-0.5-0.1-1.1-0.2-0.5 0-1.1 0c-1.3 0-2.4 0.2-3.3 0.5-0.9 0.4-1.6 1-2 1.6q-0.3 0.4-0.5 0.9-0.2 0.5-0.3 1.1 0 0.5 0.1 1 0.1 0.5 0.4 1c0.3 0.5 0.7 0.9 1.3 1.2l1.8 1 2 0.5 3.2 0.8c1.3 0.3 2.5 0.7 3.7 1.2q0.4 0.2 0.8 0.4 0.5 0.2 0.9 0.4 0.4 0.2 0.7 0.5 0.4 0.2 0.8 0.5 0.7 0.6 1.3 1.3 0.6 0.8 1 1.6 0.3 0.8 0.5 1.8 0.2 0.9 0.2 1.8 0 3-1.5 5.1-0.4 0.6-0.9 1.1-0.5 0.5-1 1-0.6 0.4-1.2 0.8-0.6 0.3-1.3 0.6c-1.8 0.8-4.1 1.2-6.8 1.2-2.6 0-4.9-0.4-6.8-1.2-2-0.8-3.4-2-4.5-3.5q-0.4-0.6-0.7-1.3-0.4-0.7-0.6-1.4-0.2-0.7-0.3-1.4-0.1-0.8-0.1-1.5h6q0 0.8 0.3 1.5 0.2 0.7 0.7 1.4 0.5 0.6 1.1 1 0.7 0.5 1.4 0.7c1 0.4 2.2 0.6 3.4 0.6 1.3 0 2.5-0.2 3.5-0.6 1-0.4 1.8-1 2.4-1.7q0.2-0.3 0.3-0.5 0.2-0.3 0.3-0.6 0.1-0.3 0.1-0.7 0.1-0.3 0.1-0.6c0-0.9-0.2-1.6-0.7-2.2q-0.2-0.2-0.5-0.4-0.2-0.2-0.5-0.4-0.3-0.1-0.5-0.3-0.3-0.2-0.6-0.3l-3.2-1-3.8-1c-2.8-0.7-5-1.7-6.6-3.2q-0.6-0.5-1.1-1.2-0.4-0.6-0.7-1.4-0.4-0.7-0.5-1.5-0.1-0.8-0.1-1.6 0-0.7 0.1-1.3 0.1-0.7 0.3-1.3 0.2-0.7 0.6-1.3 0.3-0.6 0.7-1.1 0.4-0.6 0.9-1.1 0.5-0.5 1-1 0.5-0.4 1.2-0.8 0.6-0.3 1.2-0.6c2-0.8 4-1.2 6.4-1.2 2.3 0 4.4 0.4 6.2 1.2 1.8 0.8 3.2 2 4.3 3.4 1 1.4 1.5 3 1.5 5h-5.8z"/></svg>